# xmcd
#
# Track frame offsets:
#	150
#	22732
#	44646
#	64845
#	82855
#	97854
#	122197
#	141772
#
# Disc length: 2127 seconds
#
# Revision: 1
# Processed by: cddbd v1.5.2PL0 Copyright (c) Steve Scherf et al.
# Submitted via: audiograbber 1.83.01
#
DISCID=5f084d08
DTITLE=claudette miller - all in time
DYEAR=1900
DGENRE=
TTITLE0=pillow full of tears
TTITLE1=big fat daddy
TTITLE2=aint'no sunshine
TTITLE3=i know your kind
TTITLE4=highway man
TTITLE5=you're leaving me
TTITLE6=rock me baby
TTITLE7=can't find my man
EXTD=
EXTT0=
EXTT1=
EXTT2=
EXTT3=
EXTT4=
EXTT5=
EXTT6=
EXTT7=
PLAYORDER=
